<svg width="56" height="56" viewBox="0 0 56 56" fill="none" xmlns="http://www.w3.org/2000/svg">
<path d="M33.8333 4.27782C33.8333 3.20393 34.7039 2.33337 35.7778 2.33337C36.8517 2.33337 37.7222 3.20393 37.7222 4.27782V12.0556C37.7222 13.1295 36.8517 14 35.7778 14C34.7039 14 33.8333 13.1295 33.8333 12.0556V4.27782Z" fill="#FCA311"/>
<path d="M31.8889 6.28924C30.6669 6.24326 29.3719 6.22226 28 6.22226C26.6281 6.22226 25.3331 6.24326 24.1111 6.28924V12.0556C24.1111 14.2034 22.37 15.9445 20.2222 15.9445C18.0745 15.9445 16.3333 14.2034 16.3333 12.0556V7.14714C9.51281 8.63866 6.43114 12.1956 5.26568 19.6407C5.08756 20.7786 5.9936 21.7778 7.14528 21.7778H48.8547C50.0064 21.7778 50.9124 20.7786 50.7343 19.6407C49.5689 12.1956 46.4872 8.63866 39.6667 7.14714V12.0556C39.6667 14.2034 37.9256 15.9445 35.7778 15.9445C33.63 15.9445 31.8889 14.2034 31.8889 12.0556V6.28924Z" fill="#FCA311"/>
<path fill-rule="evenodd" clip-rule="evenodd" d="M28 52.8889C8.78501 52.8889 4.66667 48.7706 4.66667 29.5556C4.66667 28.8639 4.67201 28.1917 4.6832 27.5386C4.7011 26.4933 5.56087 25.6667 6.6063 25.6667H49.3937C50.4391 25.6667 51.2989 26.4933 51.3168 27.5386C51.328 28.1917 51.3333 28.8639 51.3333 29.5556C51.3333 48.7706 47.215 52.8889 28 52.8889ZM14.3889 33.4445C14.3889 32.3706 15.2595 31.5 16.3333 31.5H22.1667C23.2406 31.5 24.1111 32.3706 24.1111 33.4445C24.1111 34.5184 23.2406 35.3889 22.1667 35.3889H16.3333C15.2595 35.3889 14.3889 34.5184 14.3889 33.4445ZM16.3333 39.2778C15.2595 39.2778 14.3889 40.1484 14.3889 41.2223C14.3889 42.2962 15.2595 43.1667 16.3333 43.1667H22.1667C23.2406 43.1667 24.1111 42.2962 24.1111 41.2223C24.1111 40.1484 23.2406 39.2778 22.1667 39.2778H16.3333ZM39.4391 32.0779C40.1985 31.3185 41.4296 31.3185 42.189 32.0779C42.9483 32.8372 42.9483 34.0684 42.189 34.8277L34.3407 42.676C33.9405 43.0763 33.4091 43.2655 32.8849 43.2439C32.4056 43.2305 31.9302 43.041 31.5643 42.6751L28.8145 39.9252C28.0551 39.1659 28.0551 37.9347 28.8145 37.1754C29.5738 36.416 30.805 36.416 31.5643 37.1754L32.953 38.564L39.4391 32.0779Z" fill="#FCA311"/>
<path d="M18.2778 4.27782C18.2778 3.20393 19.1483 2.33337 20.2222 2.33337C21.2961 2.33337 22.1667 3.20393 22.1667 4.27782V12.0556C22.1667 13.1295 21.2961 14 20.2222 14C19.1483 14 18.2778 13.1295 18.2778 12.0556V4.27782Z" fill="#FCA311"/>
</svg>
