<svg width="24" height="24" viewBox="0 0 24 24" fill="none" xmlns="http://www.w3.org/2000/svg">
<path d="M18.2851 5.52483C18.6501 5.52483 18.946 5.22893 18.946 4.86392C18.946 4.49892 18.6501 4.20302 18.2851 4.20302C17.92 4.20302 17.6241 4.49892 17.6241 4.86392C17.6241 5.22893 17.92 5.52483 18.2851 5.52483Z" fill="white"/>
<path d="M23.1175 4.64363C22.0969 4.64363 21.2208 4.71544 20.3747 3.86932L19.2796 2.77431C18.7837 2.27852 18.1115 2 17.4103 2H14.3359H14.3174C13.615 2 12.9414 2.27835 12.4438 2.77425L12.4277 2.79033L10.3649 4.85302C9.93486 5.28305 9.6933 5.86636 9.6933 6.47456V7.16686C9.6933 8.42137 10.689 9.71542 11.9299 9.90048C12.0676 9.92097 12.2034 9.93088 12.3369 9.93088V10.1069C10.1653 11.3584 5.70957 13.8822 4.82732 14.7579C4.08484 15.5006 3.52484 16.6749 3.52484 17.8618C3.52484 18.3915 3.59412 18.9303 3.90216 19.6308L1.32181 19.6242C0.591842 19.6242 0 20.216 0 20.946C0 21.676 0.591842 22.2678 1.32181 22.2678H12.3238C12.9784 22.2678 13.4322 21.5648 13.1157 20.9918C12.8339 20.4817 12.3886 20.0748 11.8505 19.8413C12.1532 19.2401 12.3289 18.7425 13.0882 18.7425H14.0993V21.3866C14.0993 21.8732 14.4939 22.2678 14.9805 22.2678H18.259C18.9348 22.2678 19.3715 21.5308 19.0303 20.9473C18.6241 20.2523 17.9069 19.7614 17.0693 19.6571L17.2652 18.0893C18.3246 17.4391 19.1051 16.3587 19.3198 15.108C19.6202 13.358 18.8752 11.7775 17.6241 10.8321V9.04962H20.2677C21.2372 9.04962 22.4383 8.36949 22.937 7.53823C23.1472 7.18806 24.0021 5.91818 24 5.5217C23.9976 5.06391 23.6313 4.64363 23.1175 4.64363ZM12.3331 9.04025C11.2557 9.04025 10.5745 8.1276 10.5745 7.18927V6.47478C10.5745 6.10847 10.7143 5.74976 10.988 5.4762L13.0508 3.41357C13.3276 3.13676 13.6992 2.95253 14.0993 2.90346V7.28725C14.0993 8.22987 13.3403 9.04025 12.3331 9.04025ZM1.32181 21.3866C1.07893 21.3866 0.881209 21.1889 0.881209 20.946C0.881209 20.7031 1.07893 20.5054 1.31945 20.5054C4.51063 20.5136 3.71931 20.5116 4.43419 20.5134C4.76057 20.942 4.81366 21.0145 5.31347 21.3866H1.32181ZM22.1815 7.08491C21.8239 7.68082 20.9626 8.16846 20.2678 8.16846H18.0202C17.4467 8.16846 16.9622 7.79901 16.7795 7.28725H15.8618C15.9745 7.8406 16.2998 8.3132 16.743 8.63143V11.2707C18.0123 12.2302 18.7321 13.3231 18.4514 14.959C18.2283 16.258 17.4425 16.9465 16.4435 17.5598C16.2318 19.2534 16.1676 19.7656 16.0855 20.4227C16.9742 20.5333 17.7748 20.535 18.259 21.3866C16.4164 21.3866 16.8191 21.3866 14.9805 21.3866C14.9805 19.2741 14.9805 19.1038 14.9805 16.9806H14.0993V17.8614C13.8659 17.8614 13.6802 17.8614 13.0882 17.8614C12.8162 17.8614 12.5626 17.9335 12.3221 18.0351C12.3653 16.8377 11.9321 15.6322 11.0461 14.7461L10.423 15.3692C11.7295 16.6764 11.6496 18.5885 10.905 19.755L10.6408 20.2773C11.3262 20.5746 11.9832 20.7602 12.3238 21.3866H7.92824C5.97581 21.3849 4.43391 19.8123 4.41073 17.9093C4.392 16.855 4.87028 15.7645 5.83839 15.0433C6.80827 14.3209 12.1702 11.22 13.2181 10.6161C13.2181 10.3765 13.2186 9.99692 13.2175 9.76918C14.2422 9.40513 14.9805 8.43684 14.9805 7.28725V2.88121H17.4105C17.878 2.88121 18.3262 3.06687 18.6566 3.39738L19.7515 4.49233C20.379 5.11986 21.2041 5.46981 22.0849 5.50925C22.178 5.82962 22.3947 6.09393 22.6821 6.25051L22.1815 7.08491Z" fill="white"/>
</svg>
