<svg width="104" height="76" viewBox="0 0 104 76" fill="none" xmlns="http://www.w3.org/2000/svg">
<g clip-path="url(#clip0)">
<path d="M88.084 40.3234C84.7624 33.814 84.3386 32.3746 83.8793 29.0843C83.42 25.7941 81.427 22.3614 78.9511 21.2858C74.3936 19.2907 70.7014 23.2631 67.1097 24.7461C63.0016 26.4367 54.9254 25.9325 54.5824 32.2856C54.2394 38.6387 65.1562 36.9896 70.863 41.2685C76.5698 45.5474 75.87 44.9345 80.2403 48.2227C84.6106 51.511 91.8156 47.6533 88.084 40.3234ZM79.8047 30.2134C79.4755 32.3014 77.6875 33.8279 75.9016 34.9589C74.7496 35.6902 73.5437 36.332 72.2942 36.8789C71.3499 37.2862 70.8315 37.3475 70.658 36.2204C70.3012 33.9248 69.9227 31.1368 70.7388 28.9143C70.9577 28.3211 71.2849 27.7279 71.8191 27.3917C72.3533 27.0556 73.1359 27.0457 73.5617 27.5163C73.9875 27.9869 73.9264 28.6355 73.8377 29.2267C73.678 30.2659 73.4199 31.2875 73.0669 32.2777C74.075 31.3096 75.145 30.4087 76.2702 29.5806C77.0272 29.0507 77.8906 28.5722 78.8112 28.6315C79.0113 28.6371 79.207 28.6921 79.3809 28.7917C79.8165 29.0665 79.8796 29.6913 79.7968 30.2134H79.8047Z" fill="#FCA311"/>
<path d="M66.4316 7.6186C67.9574 10.8357 69.493 15.3301 66.7687 19.3401C64.553 22.5968 59.9698 22.8182 57.898 19.1305C56.7724 17.1354 55.9327 10.5628 58.7733 6.32741C61.6139 2.09201 65.0518 4.72579 66.4316 7.6186Z" fill="#FCA311"/>
<path d="M83.4969 5.04215C83.7512 8.60131 83.5481 13.3469 79.5543 16.0795C76.3077 18.304 71.9512 16.8329 71.3696 12.641C71.0503 10.375 72.6549 3.94078 76.8379 1.04798C81.021 -1.84483 83.2702 1.84483 83.4969 5.04215Z" fill="#FCA311"/>
<path d="M98.2202 25.3096C94.7015 25.7901 90.1105 26.9646 88.2594 31.4393C86.7554 35.0815 89.0834 39.05 93.294 38.7692C95.5709 38.6169 101.514 35.7221 103.484 31.0201C105.453 26.318 101.386 24.8766 98.2202 25.3096Z" fill="#FCA311"/>
<path d="M91.0823 9.10551C88.0308 10.9286 84.2617 13.8076 84.3051 18.6599C84.3386 22.6007 88.0268 25.3412 91.7959 23.4331C93.8322 22.401 98.169 17.4003 98.1552 12.3068C98.1414 7.21323 93.8322 7.46632 91.0823 9.10551Z" fill="#FCA311"/>
<path d="M4.75077 35.7893V53.9806H1.03888V35.7893H4.75077Z" fill="#14213D"/>
<path d="M11.4491 37.7074C11.4491 40.5191 7.19116 40.5191 7.19116 37.7074C7.19116 34.8956 11.4491 34.8936 11.4491 37.7074ZM7.45137 41.0925V53.9806H11.1968V41.0925H7.45137Z" fill="#14213D"/>
<path d="M18.9241 37.6026V41.1953H22.1688V44.3215H18.9005V49.1639C18.9005 50.5184 19.6535 50.8842 20.3533 50.8842C20.8878 50.8836 21.417 50.7774 21.9106 50.5718L22.7681 53.6959C21.9077 54.0422 20.994 54.2362 20.0675 54.2693C17.29 54.3979 15.1787 53.1759 15.1787 49.1639V44.3215H12.9039V41.1953H15.1787V38.0198L18.9241 37.6026Z" fill="#14213D"/>
<path d="M29.2851 37.6026V41.1953H32.5259V44.3215H29.2595V49.1639C29.2595 50.5184 30.0125 50.8842 30.7123 50.8842C31.2468 50.8836 31.776 50.7774 32.2696 50.5718L33.1271 53.6959C32.2667 54.0422 31.353 54.2362 30.4265 54.2693C27.649 54.3979 25.5456 53.1759 25.5456 49.1639V44.3215H23.2609V41.1953H25.5456V38.0198L29.2851 37.6026Z" fill="#14213D"/>
<path d="M38.3194 35.7893V53.9806H34.6075V35.7893H38.3194Z" fill="#14213D"/>
<path d="M44.0834 48.7744C44.2648 50.024 45.4633 51.0404 47.5627 51.0404C48.574 51.0404 49.9755 50.8051 50.8843 50.024L52.9876 52.3672C51.6077 53.7216 49.4058 54.2693 47.4838 54.2693C42.8376 54.2693 40.2927 51.5347 40.2927 47.4199C40.2927 43.5127 42.9144 40.7801 47.0935 40.7801C51.4559 40.7801 54.3123 43.5127 53.5061 48.7744H44.0834ZM50.1589 46.0397C50.08 44.6339 48.6528 43.9814 47.0935 43.9814C45.5895 43.9814 44.4461 44.7723 44.0834 46.0397H50.1589Z" fill="#14213D"/>
<path d="M2.25907 75.5057V66.0265H0V62.8786H2.25907V62.1232C2.25907 58.398 4.95773 56.9466 7.45138 56.9466C8.87858 56.9466 9.89181 57.3421 10.9997 58.0401L9.72819 60.6699C9.17201 60.3316 8.53548 60.1493 7.88506 60.142C6.76735 60.142 5.9887 60.7668 5.9887 62.1193V62.8786H9.53698V66.0284H5.9887V75.5077L2.25907 75.5057Z" fill="#14213D"/>
<path d="M14.4868 62.667L14.7727 64.0748C15.6282 62.8766 16.7715 62.3546 18.1987 62.3546C19.3575 62.3255 20.4829 62.7454 21.3409 63.5271L19.7836 66.4931C19.1902 66.0621 18.474 65.8347 17.7414 65.8445C16.1329 65.8445 14.7569 66.8866 14.7569 68.8105V75.5037H11.0115V62.667H14.4868Z" fill="#14213D"/>
<path d="M26.273 59.2304C26.273 62.0422 22.0151 62.0422 22.0151 59.2304C22.0151 56.4187 26.273 56.4187 26.273 59.2304ZM22.2753 62.6156V75.5057H26.0207V62.6156H22.2753Z" fill="#14213D"/>
<path d="M31.7255 70.2974C31.9069 71.5471 33.1054 72.5634 35.2028 72.5634C36.2161 72.5634 37.6176 72.3281 38.5264 71.5471L40.6297 73.8922C39.2498 75.2447 37.0479 75.7924 35.126 75.7924C30.4797 75.7924 27.9348 73.0578 27.9348 68.943C27.9348 65.0378 30.5566 62.3032 34.7356 62.3032C39.0981 62.3032 41.9544 65.0378 41.1482 70.2974H31.7255ZM37.799 67.5628C37.7221 66.1569 36.2949 65.5064 34.7356 65.5064C33.2316 65.5064 32.0882 66.2874 31.7255 67.5628H37.799Z" fill="#14213D"/>
<path d="M52.3647 75.5057V68.7096C52.3647 66.7323 51.5072 65.714 49.7173 65.714C47.9766 65.6883 46.8097 67.199 46.8097 68.8658V75.5057H43.1234V62.6413H46.4982L46.6283 64.2824C47.7697 62.7975 49.2244 62.3051 50.7817 62.3288C53.6637 62.3288 56.1298 63.6833 56.1298 68.6839V75.5057H52.3647Z" fill="#14213D"/>
<path d="M72.0438 57.3025V75.5057H68.6927L68.4601 73.8645C67.2655 75.4029 65.8107 75.741 64.2021 75.741C60.437 75.741 57.8665 73.0835 57.8665 69.0735C57.8665 64.9073 60.4883 62.3822 64.2534 62.3822C65.7594 62.3822 67.1866 62.8509 68.2767 64.2034V57.3025H72.0438ZM61.6336 69.0735C61.6336 70.9223 62.7749 72.3815 64.7738 72.3815C66.4632 72.3815 68.2275 71.5214 68.2275 69.0735C68.2275 66.9123 66.4888 65.7674 64.7738 65.7674C62.8538 65.7674 61.6336 67.1476 61.6336 69.0735Z" fill="#14213D"/>
<path d="M82.7675 66.2874C81.8865 65.6459 80.8179 65.3162 79.7298 65.3502C78.5096 65.3502 77.8866 65.7931 77.8866 66.4179C77.8866 67.1199 78.5352 67.5114 79.781 67.5371C82.2983 67.6162 85.3361 68.1303 85.3636 71.6776C85.3893 73.7617 83.83 76 79.7554 76C77.8591 76 75.9134 75.6362 73.7312 73.8131L75.3418 71.1576C76.5922 72.2088 78.1752 72.7787 79.8067 72.7651C80.8968 72.7928 81.7543 72.3499 81.7286 71.6717C81.7286 71.0785 81.2871 70.5782 79.5465 70.5268C77.1593 70.422 74.1728 69.4333 74.1728 66.412C74.1728 63.4955 76.9326 62.2715 79.7022 62.2715C81.6734 62.2715 83.2603 62.7658 84.6106 63.9384L82.7675 66.2874Z" fill="#14213D"/>
<path d="M91.0488 73.6055C91.0488 76.4172 86.7909 76.4172 86.7909 73.6055C86.7909 70.7937 91.0488 70.7878 91.0488 73.6055Z" fill="#14213D"/>
</g>
<defs>
<clipPath id="clip0">
<rect width="104" height="76" fill="white"/>
</clipPath>
</defs>
</svg>
