<svg width="24" height="25" viewBox="0 0 24 25" fill="none" xmlns="http://www.w3.org/2000/svg">
<path d="M19.9243 4.12C19.8228 3.87565 19.6286 3.68147 19.3843 3.58C19.2641 3.52876 19.135 3.50158 19.0043 3.5H15.0043C14.7391 3.5 14.4847 3.60536 14.2972 3.79289C14.1096 3.98043 14.0043 4.23478 14.0043 4.5C14.0043 4.76522 14.1096 5.01957 14.2972 5.20711C14.4847 5.39464 14.7391 5.5 15.0043 5.5H16.5943L14.1943 7.9C12.7772 6.83945 11.011 6.3551 9.25112 6.54446C7.49128 6.73382 5.86851 7.58282 4.70949 8.92057C3.55046 10.2583 2.94124 11.9855 3.00447 13.7543C3.0677 15.5232 3.79868 17.2025 5.05026 18.454C6.30184 19.7056 7.98108 20.4366 9.74995 20.4998C11.5188 20.563 13.246 19.9538 14.5837 18.7948C15.9215 17.6358 16.7705 16.013 16.9598 14.2532C17.1492 12.4933 16.6648 10.7271 15.6043 9.31L18.0043 6.91V8.5C18.0043 8.76522 18.1096 9.01957 18.2972 9.20711C18.4847 9.39464 18.7391 9.5 19.0043 9.5C19.2695 9.5 19.5239 9.39464 19.7114 9.20711C19.8989 9.01957 20.0043 8.76522 20.0043 8.5V4.5C20.0027 4.36932 19.9755 4.24022 19.9243 4.12ZM13.5043 17C12.8091 17.7093 11.9184 18.1954 10.9458 18.3965C9.97318 18.5975 8.96273 18.5044 8.04328 18.1289C7.12382 17.7534 6.33702 17.1126 5.78318 16.2882C5.22935 15.4638 4.93357 14.4932 4.93357 13.5C4.93357 12.5068 5.22935 11.5362 5.78318 10.7118C6.33702 9.88736 7.12382 9.24657 8.04328 8.87109C8.96273 8.49562 9.97318 8.40247 10.9458 8.60353C11.9184 8.80459 12.8091 9.29074 13.5043 10C14.4204 10.9346 14.9336 12.1912 14.9336 13.5C14.9336 14.8088 14.4204 16.0654 13.5043 17Z" fill="#1E6DE2"/>
</svg>
