<svg width="56" height="56" viewBox="0 0 56 56" fill="none" xmlns="http://www.w3.org/2000/svg">
<path fill-rule="evenodd" clip-rule="evenodd" d="M4.66669 28C4.66669 47.215 8.78502 51.3333 28 51.3333C47.215 51.3333 51.3334 47.215 51.3334 28C51.3334 8.78496 47.215 4.66663 28 4.66663C8.78502 4.66663 4.66669 8.78496 4.66669 28ZM26.0556 35.7777C26.0556 34.7038 26.9261 33.8333 28 33.8333C29.0739 33.8333 29.9445 34.7038 29.9445 35.7777C29.9445 36.8516 29.0739 37.7222 28 37.7222C26.9261 37.7222 26.0556 36.8516 26.0556 35.7777ZM28 16.3333C26.1761 16.3333 24.6653 17.0366 23.6301 18.2012C22.6267 19.33 22.1667 20.7801 22.1667 22.1666C22.1667 24.605 23.594 26.2891 24.5221 27.3841L24.5718 27.4427C25.6683 28.7374 26.0556 29.2831 26.0556 29.9444C26.0556 31.0183 26.9261 31.8888 28 31.8888C29.0739 31.8888 29.9445 31.0183 29.9445 29.9444C29.9445 27.7403 28.5755 26.1406 27.7057 25.1244C27.6479 25.0568 27.5923 24.9918 27.5394 24.9293C26.5208 23.7267 26.0556 23.0444 26.0556 22.1666C26.0556 21.6087 26.2437 21.1144 26.5367 20.7848C26.7978 20.4911 27.2314 20.2222 28 20.2222C28.7687 20.2222 29.2023 20.4911 29.4634 20.7848C29.7563 21.1144 29.9445 21.6087 29.9445 22.1666C29.9445 23.2405 30.815 24.1111 31.8889 24.1111C32.9628 24.1111 33.8334 23.2405 33.8334 22.1666C33.8334 20.7801 33.3734 19.33 32.37 18.2012C31.3348 17.0366 29.824 16.3333 28 16.3333Z" fill="#FCA311"/>
</svg>
