<svg width="56" height="56" viewBox="0 0 56 56" fill="none" xmlns="http://www.w3.org/2000/svg">
<path d="M34.3636 6.82151C34.3636 5.6314 33.3989 4.66663 32.2088 4.66663H23.7913C22.6011 4.66663 21.6364 5.6314 21.6364 6.82151C21.6364 8.01162 22.6011 8.97639 23.7913 8.97639H25.8788V13.3198L25.879 13.3481C22.8382 13.5346 20.4271 14.1481 18.5582 15.2524C18.4688 15.0979 18.3588 14.9523 18.2282 14.8196L13.9499 10.4734L14.9508 9.45662C15.7792 8.61509 15.7792 7.25069 14.9508 6.40916C14.1224 5.56763 12.7793 5.56763 11.9509 6.40916L6.93862 11.501C6.11023 12.3426 6.11023 13.707 6.93862 14.5485C7.767 15.39 9.11008 15.39 9.93846 14.5485L10.9501 13.5209L15.2284 17.8671C15.3219 17.9621 15.4219 18.0463 15.527 18.1198C14.1962 20.1196 13.4737 22.7892 13.2365 26.2186C13.1972 26.2165 13.1577 26.2154 13.1179 26.2154H8.94277L8.9091 26.2156L8.9091 24.0268C8.9091 22.8553 7.9594 21.9056 6.78788 21.9056C5.61637 21.9056 4.66667 22.8553 4.66667 24.0268V32.7136C4.66667 33.8852 5.61637 34.8349 6.78788 34.8349C7.9594 34.8349 8.9091 33.8852 8.9091 32.7136L8.9091 30.5249L8.94277 30.5251H13.1179C13.1409 30.5251 13.1639 30.5248 13.1869 30.524C13.3489 33.8524 14.0242 36.465 15.2935 38.444C15.2714 38.4647 15.2496 38.4858 15.2282 38.5076L11.1391 42.6617L9.93312 41.4366C9.10473 40.595 7.76166 40.595 6.93327 41.4366C6.10489 42.2781 6.10489 43.6425 6.93327 44.484L12.3497 49.9864C13.1781 50.828 14.5212 50.8279 15.3495 49.9864C16.1779 49.1449 16.1779 47.7805 15.3495 46.939L14.1389 45.7091L18.2281 41.5551C18.2733 41.5091 18.3161 41.4615 18.3564 41.4126C20.2717 42.5652 22.7568 43.2025 25.879 43.393L25.8788 43.4209V47.0235H23.7913C22.6011 47.0235 21.6364 47.9883 21.6364 49.1784C21.6364 50.3685 22.6011 51.3333 23.7913 51.3333H32.2088C33.3989 51.3333 34.3636 50.3685 34.3636 49.1784C34.3636 47.9883 33.3989 47.0235 32.2088 47.0235H30.1212V43.4209L30.121 43.3929C33.0723 43.2123 35.4425 42.631 37.2997 41.5909L41.2458 45.5996L40.1765 46.6859C39.3481 47.5275 39.3481 48.8919 40.1764 49.7334C41.0048 50.5749 42.3479 50.5749 43.1763 49.7334L48.2715 44.5573C49.0999 43.7158 49.0999 42.3514 48.2715 41.5099C47.4431 40.6683 46.1 40.6683 45.2717 41.5099L44.2457 42.5521L40.468 38.7145C41.8465 36.7049 42.5829 34.0058 42.7881 30.5231C42.8193 30.5244 42.8506 30.5251 42.8822 30.5251H47.0572L47.0909 30.5249V32.7136C47.0909 33.8852 48.0406 34.8349 49.2121 34.8349C50.3836 34.8349 51.3333 33.8852 51.3333 32.7136V24.0268C51.3333 22.8553 50.3836 21.9056 49.2121 21.9056C48.0406 21.9056 47.0909 22.8553 47.0909 24.0268V26.2156L47.0572 26.2154H42.8822C42.8506 26.2154 42.8193 26.2161 42.7881 26.2174C42.5757 22.6137 41.7945 19.849 40.3218 17.819L44.4378 13.6377L46.1054 15.3319C46.9338 16.1734 48.2769 16.1734 49.1053 15.3319C49.9337 14.4903 49.9337 13.1259 49.1053 12.2844L42.7774 5.85609C41.949 5.01456 40.6059 5.01456 39.7776 5.85609C38.9492 6.69763 38.9492 8.06202 39.7776 8.90356L41.4379 10.5903L37.2785 14.8157C37.2098 14.8855 37.1468 14.9589 37.0894 15.0354C35.2646 14.067 32.9621 13.5218 30.121 13.348L30.1212 13.3198V8.97639H32.2088C33.3989 8.97639 34.3636 8.01162 34.3636 6.82151Z" fill="#FCA311"/>
</svg>
