<svg width="125" height="139" viewBox="0 0 125 139" fill="none" xmlns="http://www.w3.org/2000/svg">
<path d="M57.9922 62.85C57.9922 69.15 57.3089 74.6333 55.9422 79.3C54.6089 83.9333 52.7422 87.7667 50.3422 90.8C47.9755 93.8333 45.1589 96.1 41.8922 97.6C38.6589 99.0667 35.1589 99.8 31.3922 99.8C27.6255 99.8 24.1255 99.0667 20.8922 97.6C17.6922 96.1 14.9089 93.8333 12.5422 90.8C10.1755 87.7667 8.32552 83.9333 6.99219 79.3C5.65885 74.6333 4.99219 69.15 4.99219 62.85C4.99219 56.5167 5.65885 51.0333 6.99219 46.4C8.32552 41.7667 10.1755 37.9333 12.5422 34.9C14.9089 31.8667 17.6922 29.6167 20.8922 28.15C24.1255 26.65 27.6255 25.9 31.3922 25.9C35.1589 25.9 38.6589 26.65 41.8922 28.15C45.1589 29.6167 47.9755 31.8667 50.3422 34.9C52.7422 37.9333 54.6089 41.7667 55.9422 46.4C57.3089 51.0333 57.9922 56.5167 57.9922 62.85ZM45.2422 62.85C45.2422 57.6167 44.8589 53.2833 44.0922 49.85C43.3255 46.4167 42.2922 43.6833 40.9922 41.65C39.7255 39.6167 38.2589 38.2 36.5922 37.4C34.9255 36.5667 33.1922 36.15 31.3922 36.15C29.6255 36.15 27.9089 36.5667 26.2422 37.4C24.6089 38.2 23.1589 39.6167 21.8922 41.65C20.6255 43.6833 19.6089 46.4167 18.8422 49.85C18.1089 53.2833 17.7422 57.6167 17.7422 62.85C17.7422 68.0833 18.1089 72.4167 18.8422 75.85C19.6089 79.2833 20.6255 82.0167 21.8922 84.05C23.1589 86.0833 24.6089 87.5167 26.2422 88.35C27.9089 89.15 29.6255 89.55 31.3922 89.55C33.1922 89.55 34.9255 89.15 36.5922 88.35C38.2589 87.5167 39.7255 86.0833 40.9922 84.05C42.2922 82.0167 43.3255 79.2833 44.0922 75.85C44.8589 72.4167 45.2422 68.0833 45.2422 62.85ZM96.1 71.75V48.1C96.1 45.8667 96.25 43.4 96.55 40.7L74.1 71.75H96.1ZM115.95 71.75V78.9C115.95 79.5667 115.733 80.15 115.3 80.65C114.867 81.1167 114.25 81.35 113.45 81.35H106.85V99H96.1V81.35H65.6C64.7667 81.35 64.0333 81.1 63.4 80.6C62.7667 80.0667 62.3667 79.4167 62.2 78.65L60.9 72.4L95.15 26.65H106.85V71.75H115.95Z" fill="#101010" fill-opacity="0.08"/>
<path d="M81.0258 89.9597H79.7512V83.8182C79.7501 83.7791 79.7464 83.7402 79.7399 83.7017C79.7417 83.455 79.6535 83.2161 79.4918 83.0296L69.2608 71.3567L69.2533 71.3492C69.192 71.2831 69.1225 71.2251 69.0465 71.1765L68.9788 71.1352C68.9138 71.0991 68.8451 71.0701 68.7739 71.0488L68.7175 71.03C68.6394 71.0106 68.5592 71.0005 68.4787 71H43.33C42.1813 71 41.2488 71.9332 41.2488 73.0785V89.9578H39.9742C38.331 89.9578 37 91.2871 37 92.9281V108.377C37 110.016 38.3329 111.347 39.9742 111.347H41.2488V121.922C41.2488 123.067 42.1813 124 43.33 124H77.67C78.8168 124 79.7512 123.067 79.7512 121.922V111.347H81.0258C82.6671 111.347 84 110.018 84 108.377V92.9281C84 91.289 82.669 89.9597 81.0258 89.9597ZM43.33 73.0785H67.4372V83.713C67.4372 84.2876 67.9034 84.7513 68.4787 84.7513H77.6719V89.9578H43.33V73.0785ZM58.9001 101.557C56.3734 100.656 54.7058 99.2593 54.7058 97.0531C54.7058 94.464 56.8942 92.5057 60.4568 92.5057C62.1939 92.5057 63.4328 92.8436 64.3352 93.2698L63.5682 96.0167C62.5851 95.5385 61.5051 95.2925 60.4116 95.2976C58.9227 95.2976 58.2008 95.9942 58.2008 96.7602C58.2008 97.7291 59.0336 98.1553 61.0189 98.8988C63.7035 99.8901 64.9424 101.285 64.9424 103.426C64.9424 105.972 63.0042 108.133 58.8324 108.133C57.0953 108.133 55.3826 107.66 54.5254 107.186L55.2247 104.372C56.4053 104.974 57.7082 105.298 59.0336 105.318C60.6128 105.318 61.4475 104.663 61.4475 103.673C61.4475 102.727 60.7275 102.188 58.9001 101.557ZM40.9912 100.521C40.9912 95.3633 44.6892 92.5038 49.2877 92.5038C51.0699 92.5038 52.4216 92.8624 53.0308 93.1572L52.3088 95.8815C51.3956 95.4986 50.4134 95.3069 49.423 95.3183C46.7177 95.3183 44.599 96.9611 44.599 100.339C44.599 103.356 46.4019 105.271 49.4456 105.271C50.5059 105.271 51.6339 105.07 52.3314 104.776L52.8296 107.477C52.2205 107.768 50.7766 108.131 48.9512 108.131C43.6966 108.133 40.9912 104.845 40.9912 100.521ZM77.67 121.362H43.33V111.349H77.67V121.362ZM74.8914 107.907H70.8776L66.0084 92.7291H69.774L71.6221 99.1485C72.1391 100.972 72.6128 102.684 72.9738 104.575H73.0415C73.4259 102.77 73.8844 100.983 74.4158 99.2161L76.3559 92.731H80.0069L74.8914 107.907Z" fill="#ED4C5C"/>
</svg>
