<svg width="125" height="139" viewBox="0 0 125 139" fill="none" xmlns="http://www.w3.org/2000/svg">
<path d="M59.9922 62.85C59.9922 69.15 59.3089 74.6333 57.9422 79.3C56.6089 83.9333 54.7422 87.7667 52.3422 90.8C49.9755 93.8333 47.1589 96.1 43.8922 97.6C40.6589 99.0667 37.1589 99.8 33.3922 99.8C29.6255 99.8 26.1255 99.0667 22.8922 97.6C19.6922 96.1 16.9089 93.8333 14.5422 90.8C12.1755 87.7667 10.3255 83.9333 8.99219 79.3C7.65885 74.6333 6.99219 69.15 6.99219 62.85C6.99219 56.5167 7.65885 51.0333 8.99219 46.4C10.3255 41.7667 12.1755 37.9333 14.5422 34.9C16.9089 31.8667 19.6922 29.6167 22.8922 28.15C26.1255 26.65 29.6255 25.9 33.3922 25.9C37.1589 25.9 40.6589 26.65 43.8922 28.15C47.1589 29.6167 49.9755 31.8667 52.3422 34.9C54.7422 37.9333 56.6089 41.7667 57.9422 46.4C59.3089 51.0333 59.9922 56.5167 59.9922 62.85ZM47.2422 62.85C47.2422 57.6167 46.8589 53.2833 46.0922 49.85C45.3255 46.4167 44.2922 43.6833 42.9922 41.65C41.7255 39.6167 40.2589 38.2 38.5922 37.4C36.9255 36.5667 35.1922 36.15 33.3922 36.15C31.6255 36.15 29.9089 36.5667 28.2422 37.4C26.6089 38.2 25.1589 39.6167 23.8922 41.65C22.6255 43.6833 21.6089 46.4167 20.8422 49.85C20.1089 53.2833 19.7422 57.6167 19.7422 62.85C19.7422 68.0833 20.1089 72.4167 20.8422 75.85C21.6089 79.2833 22.6255 82.0167 23.8922 84.05C25.1589 86.0833 26.6089 87.5167 28.2422 88.35C29.9089 89.15 31.6255 89.55 33.3922 89.55C35.1922 89.55 36.9255 89.15 38.5922 88.35C40.2589 87.5167 41.7255 86.0833 42.9922 84.05C44.2922 82.0167 45.3255 79.2833 46.0922 75.85C46.8589 72.4167 47.2422 68.0833 47.2422 62.85ZM67.9 46.85C68.4 43.3833 69.3667 40.35 70.8 37.75C72.2333 35.1167 74.0167 32.9333 76.15 31.2C78.3167 29.4333 80.7833 28.1167 83.55 27.25C86.35 26.35 89.35 25.9 92.55 25.9C95.8833 25.9 98.8833 26.3833 101.55 27.35C104.25 28.2833 106.55 29.6 108.45 31.3C110.35 32.9667 111.8 34.9333 112.8 37.2C113.833 39.4667 114.35 41.9167 114.35 44.55C114.35 46.85 114.083 48.8833 113.55 50.65C113.05 52.3833 112.317 53.9 111.35 55.2C110.383 56.5 109.183 57.6 107.75 58.5C106.317 59.4 104.7 60.15 102.9 60.75C107.233 62.1167 110.467 64.2 112.6 67C114.733 69.8 115.8 73.3167 115.8 77.55C115.8 81.15 115.133 84.3333 113.8 87.1C112.467 89.8667 110.667 92.2 108.4 94.1C106.133 95.9667 103.5 97.3833 100.5 98.35C97.5333 99.3167 94.3833 99.8 91.05 99.8C87.4167 99.8 84.25 99.3833 81.55 98.55C78.85 97.7167 76.5 96.4833 74.5 94.85C72.5 93.2167 70.8 91.2167 69.4 88.85C68 86.4833 66.8 83.75 65.8 80.65L71.25 78.4C72.6833 77.8 74.0167 77.65 75.25 77.95C76.5167 78.2167 77.4333 78.8833 78 79.95C78.6 81.1167 79.25 82.2667 79.95 83.4C80.6833 84.5333 81.55 85.55 82.55 86.45C83.55 87.3167 84.7167 88.0333 86.05 88.6C87.4167 89.1333 89.0333 89.4 90.9 89.4C93 89.4 94.8333 89.0667 96.4 88.4C97.9667 87.7 99.2667 86.8 100.3 85.7C101.367 84.6 102.15 83.3833 102.65 82.05C103.183 80.6833 103.45 79.3167 103.45 77.95C103.45 76.2167 103.267 74.65 102.9 73.25C102.533 71.8167 101.767 70.6 100.6 69.6C99.4333 68.6 97.75 67.8167 95.55 67.25C93.3833 66.6833 90.4667 66.4 86.8 66.4V57.6C89.8333 57.5667 92.35 57.2833 94.35 56.75C96.35 56.2167 97.9333 55.4833 99.1 54.55C100.3 53.5833 101.133 52.4333 101.6 51.1C102.067 49.7667 102.3 48.3 102.3 46.7C102.3 43.3 101.35 40.7167 99.45 38.95C97.55 37.1833 95.0167 36.3 91.85 36.3C90.3833 36.3 89.0333 36.5167 87.8 36.95C86.5667 37.35 85.45 37.9333 84.45 38.7C83.4833 39.4333 82.6667 40.3 82 41.3C81.3333 42.3 80.8333 43.4 80.5 44.6C79.9333 46.1333 79.1833 47.15 78.25 47.65C77.35 48.15 76.0667 48.2667 74.4 48L67.9 46.85Z" fill="#101010" fill-opacity="0.08"/>
<path d="M51.7229 96.6695C51.7229 95.2157 50.7128 94.3472 48.9318 94.3472C48.2049 94.3472 47.7133 94.4179 47.455 94.4868V99.1564C47.7611 99.2253 48.136 99.2502 48.6506 99.2502C50.5502 99.2502 51.7229 98.2879 51.7229 96.6695Z" fill="#ED4C5C"/>
<path d="M62.7532 94.3931C61.9555 94.3931 61.439 94.4638 61.1329 94.5346V104.88C61.439 104.951 61.9306 104.951 62.3764 104.951C65.6132 104.974 67.7251 103.191 67.7251 99.4147C67.75 96.1301 65.8255 94.3931 62.7532 94.3931Z" fill="#ED4C5C"/>
<path d="M83.8861 88.3155H82.5891V82.0581C82.588 82.0184 82.5842 81.9787 82.5776 81.9395C82.5797 81.6878 82.4907 81.4439 82.327 81.2527L71.9146 69.3616L71.9069 69.3539C71.7747 69.2104 71.6061 69.1053 71.4191 69.0497L71.3617 69.0306C71.2822 69.0108 71.2007 69.0005 71.1187 69H45.5286C44.3598 69 43.4109 69.9508 43.4109 71.1177V88.3155H42.1139C40.442 88.3155 39.0876 89.6699 39.0876 91.3419V107.082C39.0876 108.752 40.4439 110.108 42.1139 110.108H43.4109V120.884C43.4109 122.051 44.3598 123.002 45.5286 123.002H80.4714C81.6383 123.002 82.5891 122.051 82.5891 120.884V110.108H83.8861C85.558 110.108 86.9124 108.752 86.9124 107.082V91.3419C86.9124 89.6699 85.5561 88.3155 83.8861 88.3155ZM45.5286 71.1177H70.059V81.9529C70.059 82.5383 70.5334 83.0108 71.1187 83.0108H80.4733V88.3155H45.5286V71.1177ZM71.5262 99.2961C71.5262 102.322 70.4243 104.411 68.8958 105.701C67.2315 107.084 64.6987 107.742 61.6016 107.742C59.7479 107.742 58.4356 107.623 57.5422 107.509V91.977C58.8564 91.7666 60.5686 91.6499 62.3764 91.6499C65.3778 91.6499 67.3253 92.1893 68.8499 93.339C70.4932 94.5576 71.5262 96.505 71.5262 99.2961ZM43.9102 107.579V91.977C45.0121 91.7895 46.5616 91.6499 48.7424 91.6499C50.9481 91.6499 52.5206 92.0726 53.5747 92.9163C54.5828 93.714 55.2619 95.0282 55.2619 96.5758C55.2619 98.1254 54.7473 99.4377 53.8081 100.329C52.5876 101.479 50.7817 101.995 48.6697 101.995C48.2011 101.995 47.7783 101.972 47.4512 101.925V107.579H43.9102ZM80.4714 120.31H45.5286V110.108H80.4714V120.31ZM83.5398 94.6992H77.4622V98.3128H83.14V101.222H77.4622V107.579H73.8754V91.7666H83.5398V94.6992Z" fill="#ED4C5C"/>
</svg>
