<svg width="125" height="139" viewBox="0 0 125 139" fill="none" xmlns="http://www.w3.org/2000/svg">
<path d="M70.75 114.18H64.9609V95.25C64.9609 94.9063 64.6797 94.625 64.3359 94.625H59.6484C59.3047 94.625 59.0234 94.9063 59.0234 95.25V114.18H53.25C52.7265 114.18 52.4375 114.781 52.7578 115.188L61.5078 126.258C61.5663 126.333 61.641 126.393 61.7262 126.434C61.8115 126.476 61.9051 126.498 62 126.498C62.0948 126.498 62.1885 126.476 62.2737 126.434C62.359 126.393 62.4337 126.333 62.4922 126.258L71.2422 115.188C71.5625 114.781 71.2734 114.18 70.75 114.18Z" fill="#ED4C5C"/>
<path d="M85.3906 87.6484C81.8125 78.2109 72.6953 71.5 62.0156 71.5C51.3359 71.5 42.2188 78.2031 38.6406 87.6406C31.9453 89.3984 27 95.5 27 102.75C27 111.383 33.9922 118.375 42.6172 118.375H45.75C46.0938 118.375 46.375 118.094 46.375 117.75V113.062C46.375 112.719 46.0938 112.438 45.75 112.438H42.6172C39.9844 112.438 37.5078 111.391 35.6641 109.492C33.8281 107.602 32.8516 105.055 32.9375 102.414C33.0078 100.352 33.7109 98.4141 34.9844 96.7812C36.2891 95.1172 38.1172 93.9062 40.1484 93.3672L43.1094 92.5938L44.1953 89.7344C44.8672 87.9531 45.8047 86.2891 46.9844 84.7812C48.149 83.2868 49.5286 81.973 51.0781 80.8828C54.2891 78.625 58.0703 77.4297 62.0156 77.4297C65.9609 77.4297 69.7422 78.625 72.9531 80.8828C74.5078 81.9766 75.8828 83.2891 77.0469 84.7812C78.2266 86.2891 79.1641 87.9609 79.8359 89.7344L80.9141 92.5859L83.8672 93.3672C88.1016 94.5078 91.0625 98.3594 91.0625 102.75C91.0625 105.336 90.0547 107.773 88.2266 109.602C87.33 110.503 86.2635 111.218 85.0888 111.705C83.914 112.192 82.6544 112.441 81.3828 112.438H78.25C77.9062 112.438 77.625 112.719 77.625 113.062V117.75C77.625 118.094 77.9062 118.375 78.25 118.375H81.3828C90.0078 118.375 97 111.383 97 102.75C97 95.5078 92.0703 89.4141 85.3906 87.6484Z" fill="#ED4C5C"/>
<path d="M59.9922 62.85C59.9922 69.15 59.3089 74.6333 57.9422 79.3C56.6089 83.9333 54.7422 87.7667 52.3422 90.8C49.9755 93.8333 47.1589 96.1 43.8922 97.6C40.6589 99.0667 37.1589 99.8 33.3922 99.8C29.6255 99.8 26.1255 99.0667 22.8922 97.6C19.6922 96.1 16.9089 93.8333 14.5422 90.8C12.1755 87.7667 10.3255 83.9333 8.99219 79.3C7.65885 74.6333 6.99219 69.15 6.99219 62.85C6.99219 56.5167 7.65885 51.0333 8.99219 46.4C10.3255 41.7667 12.1755 37.9333 14.5422 34.9C16.9089 31.8667 19.6922 29.6167 22.8922 28.15C26.1255 26.65 29.6255 25.9 33.3922 25.9C37.1589 25.9 40.6589 26.65 43.8922 28.15C47.1589 29.6167 49.9755 31.8667 52.3422 34.9C54.7422 37.9333 56.6089 41.7667 57.9422 46.4C59.3089 51.0333 59.9922 56.5167 59.9922 62.85ZM47.2422 62.85C47.2422 57.6167 46.8589 53.2833 46.0922 49.85C45.3255 46.4167 44.2922 43.6833 42.9922 41.65C41.7255 39.6167 40.2589 38.2 38.5922 37.4C36.9255 36.5667 35.1922 36.15 33.3922 36.15C31.6255 36.15 29.9089 36.5667 28.2422 37.4C26.6089 38.2 25.1589 39.6167 23.8922 41.65C22.6255 43.6833 21.6089 46.4167 20.8422 49.85C20.1089 53.2833 19.7422 57.6167 19.7422 62.85C19.7422 68.0833 20.1089 72.4167 20.8422 75.85C21.6089 79.2833 22.6255 82.0167 23.8922 84.05C25.1589 86.0833 26.6089 87.5167 28.2422 88.35C29.9089 89.15 31.6255 89.55 33.3922 89.55C35.1922 89.55 36.9255 89.15 38.5922 88.35C40.2589 87.5167 41.7255 86.0833 42.9922 84.05C44.2922 82.0167 45.3255 79.2833 46.0922 75.85C46.8589 72.4167 47.2422 68.0833 47.2422 62.85ZM114.25 89.75V99H74.25V89.75H88.9V47.6C88.9 45.9333 88.95 44.2167 89.05 42.45L78.65 51.15C78.05 51.6167 77.45 51.9167 76.85 52.05C76.2833 52.15 75.7333 52.15 75.2 52.05C74.7 51.95 74.25 51.7833 73.85 51.55C73.45 51.2833 73.15 51 72.95 50.7L69.05 45.35L91.1 26.6H101.25V89.75H114.25Z" fill="#101010" fill-opacity="0.08"/>
</svg>
