<svg width="125" height="139" viewBox="0 0 125 139" fill="none" xmlns="http://www.w3.org/2000/svg">
<path fill-rule="evenodd" clip-rule="evenodd" d="M62.9732 68.4869L84.8744 75.9506C85.4094 76.1375 85.8477 76.7498 85.8348 77.317V108.409C85.8348 108.983 85.4674 109.73 85.0227 110.079L62.8057 127.391C62.5865 127.565 62.29 127.655 61.9936 127.655C61.6971 127.655 61.407 127.565 61.1814 127.391L38.9645 110.079C38.5197 109.724 38.1523 108.976 38.1523 108.409V77.317C38.1523 76.7498 38.5906 76.1311 39.1256 75.9506L61.0268 68.4869C61.291 68.3967 61.6455 68.3516 62 68.3516C62.3545 68.3516 62.709 68.3967 62.9732 68.4869ZM62 122.138L81.207 107.172V79.6115L62 73.0631L42.793 79.6115V107.172L62 122.138Z" fill="#ED4C5C"/>
<path fill-rule="evenodd" clip-rule="evenodd" d="M54.9682 99.0828L49.973 104.078C49.8771 104.175 49.8233 104.306 49.8233 104.442C49.8233 104.578 49.8771 104.709 49.973 104.806L52.1645 106.998C52.3643 107.197 52.693 107.197 52.8928 106.998L57.8879 102.003C61.4779 104.265 66.2732 103.833 69.3992 100.707C73.0279 97.0783 73.0279 91.2002 69.3992 87.5715C65.7705 83.9428 59.8924 83.9428 56.2637 87.5715C53.1377 90.6975 52.7059 95.4992 54.9682 99.0828ZM66.4795 90.4912C64.4686 88.4738 61.2008 88.4738 59.1834 90.4912C57.166 92.5086 57.1725 95.7699 59.1834 97.7873C61.1943 99.8047 64.4621 99.8047 66.4795 97.7873C68.4969 95.7764 68.4969 92.5086 66.4795 90.4912Z" fill="#ED4C5C"/>
<path d="M59.9922 62.85C59.9922 69.15 59.3089 74.6333 57.9422 79.3C56.6089 83.9333 54.7422 87.7667 52.3422 90.8C49.9755 93.8333 47.1589 96.1 43.8922 97.6C40.6589 99.0667 37.1589 99.8 33.3922 99.8C29.6255 99.8 26.1255 99.0667 22.8922 97.6C19.6922 96.1 16.9089 93.8333 14.5422 90.8C12.1755 87.7667 10.3255 83.9333 8.99219 79.3C7.65885 74.6333 6.99219 69.15 6.99219 62.85C6.99219 56.5167 7.65885 51.0333 8.99219 46.4C10.3255 41.7667 12.1755 37.9333 14.5422 34.9C16.9089 31.8667 19.6922 29.6167 22.8922 28.15C26.1255 26.65 29.6255 25.9 33.3922 25.9C37.1589 25.9 40.6589 26.65 43.8922 28.15C47.1589 29.6167 49.9755 31.8667 52.3422 34.9C54.7422 37.9333 56.6089 41.7667 57.9422 46.4C59.3089 51.0333 59.9922 56.5167 59.9922 62.85ZM47.2422 62.85C47.2422 57.6167 46.8589 53.2833 46.0922 49.85C45.3255 46.4167 44.2922 43.6833 42.9922 41.65C41.7255 39.6167 40.2589 38.2 38.5922 37.4C36.9255 36.5667 35.1922 36.15 33.3922 36.15C31.6255 36.15 29.9089 36.5667 28.2422 37.4C26.6089 38.2 25.1589 39.6167 23.8922 41.65C22.6255 43.6833 21.6089 46.4167 20.8422 49.85C20.1089 53.2833 19.7422 57.6167 19.7422 62.85C19.7422 68.0833 20.1089 72.4167 20.8422 75.85C21.6089 79.2833 22.6255 82.0167 23.8922 84.05C25.1589 86.0833 26.6089 87.5167 28.2422 88.35C29.9089 89.15 31.6255 89.55 33.3922 89.55C35.1922 89.55 36.9255 89.15 38.5922 88.35C40.2589 87.5167 41.7255 86.0833 42.9922 84.05C44.2922 82.0167 45.3255 79.2833 46.0922 75.85C46.8589 72.4167 47.2422 68.0833 47.2422 62.85ZM111.55 87.5C112.883 87.5 113.933 87.8833 114.7 88.65C115.5 89.3833 115.9 90.3667 115.9 91.6V99H66.3V94.9C66.3 94.0667 66.4667 93.2 66.8 92.3C67.1667 91.3667 67.7333 90.5333 68.5 89.8L90.45 67.8C92.2833 65.9333 93.9167 64.15 95.35 62.45C96.8167 60.75 98.0333 59.0667 99 57.4C99.9667 55.7333 100.7 54.05 101.2 52.35C101.733 50.6167 102 48.8 102 46.9C102 45.1667 101.75 43.65 101.25 42.35C100.75 41.0167 100.033 39.9 99.1 39C98.2 38.1 97.1 37.4333 95.8 37C94.5333 36.5333 93.1 36.3 91.5 36.3C90.0333 36.3 88.6667 36.5167 87.4 36.95C86.1667 37.35 85.0667 37.9333 84.1 38.7C83.1333 39.4333 82.3167 40.3 81.65 41.3C80.9833 42.3 80.4833 43.4 80.15 44.6C79.5833 46.1333 78.85 47.15 77.95 47.65C77.05 48.15 75.75 48.2667 74.05 48L67.55 46.85C68.05 43.3833 69.0167 40.35 70.45 37.75C71.8833 35.1167 73.6667 32.9333 75.8 31.2C77.9667 29.4333 80.4333 28.1167 83.2 27.25C86 26.35 89 25.9 92.2 25.9C95.5333 25.9 98.5833 26.4 101.35 27.4C104.117 28.3667 106.483 29.75 108.45 31.55C110.417 33.35 111.95 35.5167 113.05 38.05C114.15 40.5833 114.7 43.4 114.7 46.5C114.7 49.1667 114.3 51.6333 113.5 53.9C112.733 56.1667 111.683 58.3333 110.35 60.4C109.05 62.4667 107.517 64.4667 105.75 66.4C103.983 68.3333 102.133 70.3 100.2 72.3L83.9 88.95C85.4667 88.4833 87.0167 88.1333 88.55 87.9C90.1167 87.6333 91.6 87.5 93 87.5H111.55Z" fill="#101010" fill-opacity="0.08"/>
</svg>
