<svg width="24" height="25" viewBox="0 0 24 25" fill="none" xmlns="http://www.w3.org/2000/svg">
<path d="M19 9.5C19 5.6 15.9 2.5 12 2.5C8.1 2.5 5 5.6 5 9.5C5 13 7.6 15.9 11 16.4V18.5H10C9.4 18.5 9 18.9 9 19.5C9 20.1 9.4 20.5 10 20.5H11V21.5C11 22.1 11.4 22.5 12 22.5C12.6 22.5 13 22.1 13 21.5V20.5H14C14.6 20.5 15 20.1 15 19.5C15 18.9 14.6 18.5 14 18.5H13V16.4C16.4 15.9 19 13 19 9.5ZM12 14.5C9.2 14.5 7 12.3 7 9.5C7 6.7 9.2 4.5 12 4.5C14.8 4.5 17 6.7 17 9.5C17 12.3 14.8 14.5 12 14.5Z" fill="#FF8F8F"/>
</svg>
