<svg width="104" height="76" viewBox="0 0 104 76" fill="none" xmlns="http://www.w3.org/2000/svg">
<g clip-path="url(#clip0)">
<path d="M88.084 40.3233C84.7624 33.814 84.3386 32.3745 83.8793 29.0842C83.42 25.794 81.427 22.3614 78.9511 21.2857C74.3936 19.2906 70.7014 23.263 67.1097 24.746C63.0016 26.4366 54.9254 25.9324 54.5824 32.2855C54.2394 38.6386 65.1562 36.9895 70.863 41.2684C76.5698 45.5473 75.87 44.9344 80.2403 48.2226C84.6106 51.5109 91.8156 47.6532 88.084 40.3233ZM79.8047 30.2133C79.4755 32.3013 77.6875 33.8278 75.9016 34.9588C74.7496 35.6901 73.5437 36.3319 72.2942 36.8788C71.3499 37.2861 70.8315 37.3474 70.658 36.2203C70.3012 33.9247 69.9227 31.1367 70.7388 28.9142C70.9577 28.321 71.2849 27.7278 71.8191 27.3916C72.3533 27.0555 73.1359 27.0456 73.5617 27.5162C73.9875 27.9868 73.9264 28.6354 73.8377 29.2266C73.678 30.2658 73.4199 31.2875 73.0669 32.2776C74.075 31.3095 75.145 30.4086 76.2702 29.5805C77.0272 29.0506 77.8906 28.5721 78.8112 28.6314C79.0113 28.637 79.207 28.692 79.3809 28.7916C79.8165 29.0664 79.8796 29.6913 79.7968 30.2133H79.8047Z" fill="#FCA311"/>
<path d="M66.4316 7.61851C67.9574 10.8356 69.493 15.33 66.7687 19.34C64.553 22.5967 59.9698 22.8181 57.898 19.1304C56.7724 17.1353 55.9327 10.5627 58.7733 6.32732C61.6139 2.09192 65.0518 4.7257 66.4316 7.61851Z" fill="#FCA311"/>
<path d="M83.4969 5.04212C83.7512 8.60128 83.5481 13.3468 79.5543 16.0795C76.3077 18.304 71.9512 16.8328 71.3696 12.6409C71.0503 10.3749 72.6549 3.94075 76.8379 1.04794C81.021 -1.84486 83.2702 1.8448 83.4969 5.04212Z" fill="#FCA311"/>
<path d="M98.2202 25.3096C94.7015 25.7901 90.1105 26.9646 88.2594 31.4393C86.7554 35.0815 89.0834 39.0499 93.294 38.7691C95.5709 38.6169 101.514 35.7221 103.484 31.0201C105.453 26.318 101.386 24.8766 98.2202 25.3096Z" fill="#FCA311"/>
<path d="M91.0823 9.10539C88.0308 10.9285 84.2617 13.8074 84.3051 18.6598C84.3386 22.6006 88.0268 25.3411 91.7959 23.433C93.8322 22.4008 98.169 17.4002 98.1552 12.3067C98.1414 7.2131 93.8322 7.4662 91.0823 9.10539Z" fill="#FCA311"/>
<path d="M4.75077 35.7893V53.9806H1.03888V35.7893H4.75077Z" fill="#FCA311"/>
<path d="M11.4491 37.7072C11.4491 40.5189 7.19116 40.5189 7.19116 37.7072C7.19116 34.8955 11.4491 34.8935 11.4491 37.7072ZM7.45137 41.0924V53.9805H11.1968V41.0924H7.45137Z" fill="#FCA311"/>
<path d="M18.9241 37.6025V41.1953H22.1688V44.3214H18.9005V49.1639C18.9005 50.5183 19.6535 50.8842 20.3533 50.8842C20.8878 50.8835 21.417 50.7774 21.9106 50.5717L22.7681 53.6959C21.9077 54.0422 20.994 54.2362 20.0675 54.2693C17.29 54.3978 15.1787 53.1759 15.1787 49.1639V44.3214H12.9039V41.1953H15.1787V38.0198L18.9241 37.6025Z" fill="#FCA311"/>
<path d="M29.2851 37.6025V41.1953H32.5259V44.3214H29.2595V49.1639C29.2595 50.5183 30.0125 50.8842 30.7123 50.8842C31.2468 50.8835 31.776 50.7774 32.2696 50.5717L33.1271 53.6959C32.2667 54.0422 31.353 54.2362 30.4265 54.2693C27.649 54.3978 25.5456 53.1759 25.5456 49.1639V44.3214H23.2609V41.1953H25.5456V38.0198L29.2851 37.6025Z" fill="#FCA311"/>
<path d="M38.3194 35.7893V53.9806H34.6075V35.7893H38.3194Z" fill="#FCA311"/>
<path d="M44.0834 48.7743C44.2648 50.024 45.4633 51.0403 47.5627 51.0403C48.574 51.0403 49.9755 50.805 50.8843 50.024L52.9876 52.3671C51.6077 53.7216 49.4058 54.2693 47.4838 54.2693C42.8376 54.2693 40.2927 51.5346 40.2927 47.4199C40.2927 43.5127 42.9144 40.78 47.0935 40.78C51.4559 40.78 54.3123 43.5127 53.5061 48.7743H44.0834ZM50.1589 46.0397C50.08 44.6338 48.6528 43.9813 47.0935 43.9813C45.5895 43.9813 44.4461 44.7722 44.0834 46.0397H50.1589Z" fill="#FCA311"/>
<path d="M2.25907 75.5056V66.0264H0V62.8785H2.25907V62.1231C2.25907 58.3979 4.95773 56.9465 7.45138 56.9465C8.87858 56.9465 9.89181 57.342 10.9997 58.04L9.72819 60.6698C9.17201 60.3315 8.53548 60.1492 7.88506 60.1419C6.76735 60.1419 5.9887 60.7667 5.9887 62.1192V62.8785H9.53698V66.0283H5.9887V75.5076L2.25907 75.5056Z" fill="#FCA311"/>
<path d="M14.4868 62.6669L14.7727 64.0747C15.6282 62.8764 16.7715 62.3544 18.1987 62.3544C19.3575 62.3254 20.4829 62.7453 21.3409 63.527L19.7836 66.493C19.1902 66.062 18.474 65.8345 17.7414 65.8444C16.1329 65.8444 14.7569 66.8864 14.7569 68.8104V75.5036H11.0115V62.6669H14.4868Z" fill="#FCA311"/>
<path d="M26.273 59.2304C26.273 62.0421 22.0151 62.0421 22.0151 59.2304C22.0151 56.4186 26.273 56.4186 26.273 59.2304ZM22.2753 62.6156V75.5056H26.0207V62.6156H22.2753Z" fill="#FCA311"/>
<path d="M31.7255 70.2975C31.9069 71.5472 33.1054 72.5635 35.2028 72.5635C36.2161 72.5635 37.6176 72.3282 38.5264 71.5472L40.6297 73.8923C39.2498 75.2447 37.0479 75.7924 35.126 75.7924C30.4797 75.7924 27.9348 73.0578 27.9348 68.943C27.9348 65.0378 30.5566 62.3032 34.7356 62.3032C39.0981 62.3032 41.9544 65.0378 41.1482 70.2975H31.7255ZM37.799 67.5629C37.7221 66.157 36.2949 65.5065 34.7356 65.5065C33.2316 65.5065 32.0882 66.2875 31.7255 67.5629H37.799Z" fill="#FCA311"/>
<path d="M52.3647 75.5057V68.7097C52.3647 66.7324 51.5072 65.7141 49.7173 65.7141C47.9766 65.6884 46.8097 67.1991 46.8097 68.8659V75.5057H43.1234V62.6414H46.4982L46.6283 64.2825C47.7697 62.7976 49.2244 62.3052 50.7817 62.3289C53.6637 62.3289 56.1298 63.6834 56.1298 68.684V75.5057H52.3647Z" fill="#FCA311"/>
<path d="M72.0438 57.3025V75.5056H68.6927L68.4601 73.8645C67.2655 75.4028 65.8107 75.7409 64.2021 75.7409C60.437 75.7409 57.8665 73.0834 57.8665 69.0734C57.8665 64.9072 60.4883 62.3822 64.2534 62.3822C65.7594 62.3822 67.1866 62.8508 68.2767 64.2033V57.3025H72.0438ZM61.6336 69.0734C61.6336 70.9222 62.7749 72.3815 64.7738 72.3815C66.4632 72.3815 68.2275 71.5214 68.2275 69.0734C68.2275 66.9122 66.4888 65.7674 64.7738 65.7674C62.8538 65.7674 61.6336 67.1475 61.6336 69.0734Z" fill="#FCA311"/>
<path d="M82.7675 66.2874C81.8865 65.6459 80.8179 65.3162 79.7298 65.3502C78.5096 65.3502 77.8866 65.7931 77.8866 66.4179C77.8866 67.1199 78.5352 67.5114 79.781 67.5371C82.2983 67.6162 85.3361 68.1303 85.3636 71.6776C85.3893 73.7617 83.83 76 79.7554 76C77.8591 76 75.9134 75.6361 73.7312 73.8131L75.3418 71.1575C76.5922 72.2088 78.1752 72.7787 79.8067 72.7651C80.8968 72.7928 81.7543 72.3499 81.7286 71.6716C81.7286 71.0784 81.2871 70.5782 79.5465 70.5268C77.1593 70.422 74.1728 69.4333 74.1728 66.412C74.1728 63.4954 76.9326 62.2715 79.7022 62.2715C81.6734 62.2715 83.2603 62.7658 84.6106 63.9384L82.7675 66.2874Z" fill="#FCA311"/>
<path d="M91.0488 73.6054C91.0488 76.4171 86.7909 76.4171 86.7909 73.6054C86.7909 70.7937 91.0488 70.7877 91.0488 73.6054Z" fill="#FCA311"/>
</g>
<defs>
<clipPath id="clip0">
<rect width="104" height="76" fill="white"/>
</clipPath>
</defs>
</svg>
