<svg width="24" height="24" viewBox="0 0 24 24" fill="none" xmlns="http://www.w3.org/2000/svg">
<path d="M19.9441 8.0482C19.9568 8.22586 19.9568 8.40355 19.9568 8.58121C19.9568 14 15.8325 20.2436 8.29441 20.2436C5.97207 20.2436 3.81473 19.571 2 18.4036C2.32996 18.4416 2.64719 18.4543 2.98984 18.4543C4.90605 18.4543 6.67004 17.8071 8.07867 16.703C6.27664 16.665 4.76648 15.4848 4.24617 13.8604C4.5 13.8984 4.75379 13.9238 5.02031 13.9238C5.38832 13.9238 5.75637 13.873 6.09898 13.7843C4.22082 13.4035 2.81215 11.7538 2.81215 9.76141V9.71066C3.35781 10.0152 3.99238 10.2056 4.66492 10.2309C3.56086 9.49488 2.83754 8.23855 2.83754 6.81723C2.83754 6.05582 3.04055 5.35785 3.3959 4.74871C5.41367 7.23602 8.44668 8.86035 11.8477 9.03805C11.7842 8.73348 11.7461 8.41625 11.7461 8.09898C11.7461 5.84008 13.5736 4 15.8451 4C17.0253 4 18.0913 4.49492 18.84 5.29441C19.7664 5.11676 20.6547 4.7741 21.4416 4.30457C21.137 5.25637 20.4898 6.05586 19.6395 6.56344C20.4644 6.47465 21.2639 6.24617 21.9999 5.92895C21.4416 6.74109 20.7436 7.46441 19.9441 8.0482Z" fill="white"/>
</svg>
