<svg width="24" height="24" viewBox="0 0 24 24" fill="none" xmlns="http://www.w3.org/2000/svg">
<path d="M22.5403 7.42033C22.2873 6.46763 21.5418 5.71732 20.5953 5.46269C18.8796 5 12 5 12 5C12 5 5.12044 5 3.40474 5.46269C2.45821 5.71736 1.71273 6.46763 1.45971 7.42033C1 9.14714 1 12.75 1 12.75C1 12.75 1 16.3528 1.45971 18.0796C1.71273 19.0323 2.45821 19.7514 3.40474 20.006C5.12044 20.4687 12 20.4687 12 20.4687C12 20.4687 18.8796 20.4687 20.5953 20.006C21.5418 19.7514 22.2873 19.0323 22.5403 18.0796C23 16.3528 23 12.75 23 12.75C23 12.75 23 9.14714 22.5403 7.42033ZM9.74998 16.0211V9.47888L15.5 12.7501L9.74998 16.0211Z" fill="white"/>
</svg>
